<svg width="98" height="97" viewBox="0 0 98 97" fill="none" xmlns="http://www.w3.org/2000/svg">
<rect x="0.5" width="97" height="97" rx="20" fill="#DBDCFF"/>
<circle cx="48.5992" cy="47.2974" r="25.6529" fill="#5236FF"/>
<mask id="mask0_14_290" style="mask-type:alpha" maskUnits="userSpaceOnUse" x="22" y="21" width="53" height="52">
<circle cx="48.5992" cy="47.2974" r="25.6529" fill="url(#paint0_linear_14_290)"/>
</mask>
<g mask="url(#mask0_14_290)">
</g>
<path d="M68.8959 78.7136C68.92 75.4314 68.4084 72.1774 67.3904 69.1374C66.3725 66.0975 64.8681 63.331 62.9631 60.9961C61.0581 58.6611 58.7899 56.8034 56.2879 55.5289C53.7859 54.2545 51.0992 53.5883 48.3811 53.5684C45.663 53.5485 42.9668 54.1753 40.4464 55.413C37.926 56.6506 35.6308 58.4749 33.6919 60.7817C31.7529 63.0885 30.2081 65.8327 29.1457 68.8574C28.0834 71.8822 27.5242 75.1283 27.5002 78.4105L68.8959 78.7136Z" fill="#E1E3F9"/>
<path d="M58.2188 40.8845C58.2188 46.1974 53.9118 50.5043 48.5989 50.5043C43.2861 50.5043 38.9791 46.1974 38.9791 40.8845C38.9791 35.5716 43.2861 31.2646 48.5989 31.2646C53.9118 31.2646 58.2188 35.5716 58.2188 40.8845Z" fill="#E1E3F9"/>
<defs>
<linearGradient id="paint0_linear_14_290" x1="26.9546" y1="26.8553" x2="72.6488" y2="74.1528" gradientUnits="userSpaceOnUse">
<stop stop-color="#5860C2"/>
<stop offset="1" stop-color="#292F8D"/>
</linearGradient>
</defs>
</svg>
